<svg width="44" height="53" viewBox="0 0 44 53" fill="none" xmlns="http://www.w3.org/2000/svg">
<path d="M0 21C0 18.7909 1.79086 17 4 17C6.20914 17 8 18.7909 8 21V49C8 51.2091 6.20914 53 4 53C1.79086 53 0 51.2091 0 49V21Z" fill="white"/>
<path d="M36 38C36 35.7909 37.7909 34 40 34C42.2091 34 44 35.7909 44 38V49C44 51.2091 42.2091 53 40 53C37.7909 53 36 51.2091 36 49V38Z" fill="white"/>
<path d="M18 4C18 1.79086 19.7909 0 22 0C24.2091 0 26 1.79086 26 4V49C26 51.2091 24.2091 53 22 53C19.7909 53 18 51.2091 18 49V4Z" fill="white"/>
</svg>
